Coordinates
version=1
nRows=10
nColumns=63
inDegrees=yes

Units are S.I. units (second, meters, Newtons, ...)
If the header above contains a line with 'inDegrees', this indicates whether rotational values are in degrees (yes) or radians (no).

endheader
time	pelvis_tilt	pelvis_list	pelvis_rotation	pelvis_tx	pelvis_ty	pelvis_tz	hip_flexion_r	hip_adduction_r	hip_rotation_r	knee_angle_r	knee_angle_r_beta	ankle_angle_r	subtalar_angle_r	mtp_angle_r	hip_flexion_l	hip_adduction_l	hip_rotation_l	knee_angle_l	knee_angle_l_beta	ankle_angle_l	subtalar_angle_l	mtp_angle_l	L5_S1_Flex_Ext	L5_S1_Lat_Bending	L5_S1_axial_rotation	L4_L5_Flex_Ext	L4_L5_Lat_Bending	L4_L5_axial_rotation	L3_L4_Flex_Ext	L3_L4_Lat_Bending	L3_L4_axial_rotation	L2_L3_Flex_Ext	L2_L3_Lat_Bending	L2_L3_axial_rotation	L1_L2_Flex_Ext	L1_L2_Lat_Bending	L1_L2_axial_rotation	L1_T12_Flex_Ext	L1_T12_Lat_Bending	L1_T12_axial_rotation	Abs_r3	Abs_r2	Abs_r1	Abs_t1	Abs_t2	neck_flexion	neck_bending	neck_rotation	arm_flex_r	arm_add_r	arm_rot_r	elbow_flex_r	pro_sup_r	wrist_flex_r	wrist_dev_r	arm_flex_l	arm_add_l	arm_rot_l	elbow_flex_l	pro_sup_l	wrist_flex_l	wrist_dev_l
      0.03333333	     -1.85927349	     -8.47427087	     -9.97767334	     -1.60974805	      0.87206695	      0.25959457	     -1.78314609	      9.71068894	      3.90337406	      2.63290627	      0.04595288	      2.49513999	    -15.05188392	      0.00000000	     -4.51622253	     -9.88296620	    -21.20841138	      2.06926309	      0.03611545	      6.84802017	     -2.42228851	      0.00000000	      0.00180209	      0.41169377	      0.33099585	      0.00334667	      0.54755271	      0.35168309	      0.00296066	      1.00099223	      0.35168309	      0.00205961	      1.00099223	      0.28962137	      0.00167342	      0.83952593	      0.26893413	      0.00102972	      0.63771365	      0.24824689	      0.01287218	      4.65716224	      1.84089964	      0.00000000	      0.00000000	     -0.00000000	      0.00000000	      0.00000000	     -3.96972765	     -1.03628603	     -0.49430283	     27.23917534	     31.25263856	      0.00000000	      6.30519373	     -5.67437549	     12.48650404	    -51.34640440	     47.26040475	     36.14189431	      0.00000000	      6.30519373
      0.06666667	     -1.52181540	     -6.42851728	     -8.88265185	     -1.61003668	      0.87191386	      0.26284306	     -1.81112135	      7.98858043	      3.54062738	      2.87504470	      0.05017900	      3.18565912	    -15.66866614	      0.00000000	     -2.96271405	     -8.02724771	    -15.29667582	      3.87511560	      0.06763353	      4.99136965	    -10.48824093	      0.00000000	      0.00035628	      0.28282205	      0.02940375	      0.00066164	      0.37615333	      0.03124148	      0.00058533	      0.68765354	      0.03124148	      0.00040719	      0.68765354	      0.02572828	      0.00033084	      0.57673073	      0.02389055	      0.00020358	      0.43809136	      0.02205281	      0.00254486	      3.19933961	      0.16353483	      0.00000000	      0.00000000	     -0.00000000	      0.00000000	      0.00000000	     -3.57677945	      2.51050444	    -18.80123720	     30.84426183	     27.48202204	      0.00000000	      6.07821714	     -6.01021081	     10.22575398	    -48.72052021	     45.76297259	     36.22705713	      0.00000000	      6.07821714
      0.10000000	     -1.25468108	     -4.84756267	     -7.62309568	     -1.61013531	      0.87189174	      0.26476537	     -1.85639578	      6.69485361	      2.71304623	      3.13138939	      0.05465306	      3.69607172	    -16.22243284	      0.00000000	     -1.74789234	     -6.53966127	    -11.74872889	      5.21770833	      0.09106619	      3.74552414	    -14.61897841	      0.00000000	     -0.00182410	      0.19087484	     -0.31053663	     -0.00338754	      0.25386353	     -0.32994517	     -0.00299681	      0.46409308	     -0.32994517	     -0.00208476	      0.46409308	     -0.27171955	     -0.00169386	      0.38923197	     -0.25231101	     -0.00104229	      0.29566512	     -0.23290247	     -0.01302937	      2.15921432	     -1.72711159	      0.00000000	      0.00000000	     -0.00000000	      0.00000000	      0.00000000	     -2.88186565	      4.65565711	    -28.33043440	     34.13211443	     25.93921883	      0.00000000	      5.97462221	     -6.42543279	      8.34623563	    -46.09353409	     44.57479749	     36.34065275	      0.00000000	      5.97462221
      0.13333333	     -1.06529514	     -3.84194318	     -7.27751437	     -1.61002762	      0.87218271	      0.26625594	     -1.93365986	      5.86154571	      2.56850710	      3.37987892	      0.05899002	      4.08821129	    -16.38942387	      0.00000000	     -1.29203307	     -5.49539021	    -10.17563447	      5.70381920	      0.09955042	      2.88746994	    -16.79087775	      0.00000000	     -0.00213060	      0.13410661	     -0.45810780	     -0.00395674	      0.17836180	     -0.48673953	     -0.00350037	      0.32606682	     -0.48673953	     -0.00243507	      0.32606682	     -0.40084432	     -0.00197848	      0.27347021	     -0.37221258	     -0.00121743	      0.20773114	     -0.34358085	     -0.01521868	      1.51704083	     -2.54785813	      0.00000000	      0.00000000	     -0.00000000	      0.00000000	      0.00000000	     -2.38592753	      5.85320354	    -33.10380739	     36.32899602	     25.21522913	      0.00000000	      5.89562943	     -6.57270165	      7.34833854	    -45.33019986	     43.73815076	     36.21649739	      0.00000000	      5.89562943
      0.16666667	     -0.98062348	     -3.51124799	     -7.31534399	     -1.60983694	      0.87259990	      0.26679374	     -2.02011345	      5.61047115	      2.64662871	      3.48068118	      0.06074935	      4.08749249	    -16.36384018	      0.00000000	     -1.16755833	     -5.14155899	    -10.13752274	      5.83544785	      0.10184778	      2.88863441	    -16.95111368	      0.00000000	     -0.00352106	      0.12313017	     -0.51569788	     -0.00653895	      0.16376313	     -0.54792899	     -0.00578474	      0.29937870	     -0.54792899	     -0.00402422	      0.29937870	     -0.45123564	     -0.00326965	      0.25108705	     -0.41900452	     -0.00201193	      0.19072864	     -0.38677341	     -0.02515055	      1.39287315	     -2.86815687	      0.00000000	      0.00000000	     -0.00000000	      0.00000000	      0.00000000	     -2.13166371	      5.87379279	    -33.35547915	     36.93045319	     25.18056729	      0.00000000	      5.88797767	     -6.66583525	      7.03616922	    -45.32415973	     43.39048321	     36.19150351	      0.00000000	      5.88797767
      0.20000000	     -0.96992241	     -3.58818524	     -7.19101408	     -1.60957663	      0.87290374	      0.26609772	     -2.03684467	      5.68161092	      2.33336640	      3.59979945	      0.06282835	      4.16469358	    -16.07946423	      0.00000000	     -0.93264287	     -5.21209882	     -9.28062519	      6.17442602	      0.10776406	      2.96883194	    -17.50575704	      0.00000000	     -0.00400119	      0.13698638	     -0.54294198	     -0.00743060	      0.18219188	     -0.57687585	     -0.00657355	      0.33306868	     -0.57687585	     -0.00457295	      0.33306868	     -0.47507423	     -0.00371550	      0.27934263	     -0.44114036	     -0.00228628	      0.21219190	     -0.40720648	     -0.02858007	      1.54961732	     -3.01968040	      0.00000000	      0.00000000	     -0.00000000	      0.00000000	      0.00000000	     -2.09095806	      6.02758167	    -34.68167576	     37.45758059	     26.27105063	      0.00000000	      5.76664019	     -6.61441539	      6.98535655	    -45.08755123	     43.07479532	     36.66156173	      0.00000000	      5.76664019
      0.23333333	     -1.04076988	     -4.01005745	     -7.43966717	     -1.60945506	      0.87316133	      0.26497998	     -1.91631538	      6.02905461	      2.65647018	      3.83677795	      0.06696441	      3.96744004	    -16.13238072	      0.00000000	     -0.73940273	     -5.62465391	     -9.27736130	      6.53316152	      0.11402518	      3.28790884	    -17.55083711	      0.00000000	     -0.00353572	      0.17924009	     -0.48445082	     -0.00656618	      0.23838932	     -0.51472900	     -0.00580883	      0.43580436	     -0.51472900	     -0.00404097	      0.43580436	     -0.42389447	     -0.00328327	      0.36550639	     -0.39361629	     -0.00202031	      0.27764290	     -0.36333812	     -0.02525528	      2.02759976	     -2.69437014	      0.00000000	      0.00000000	     -0.00000000	      0.00000000	      0.00000000	     -2.04968242	      5.70097252	    -34.76626451	     37.17231343	     26.20172571	      0.00000000	      5.74939048	     -6.50737563	      7.31032741	    -45.18236364	     42.97483093	     36.57614721	      0.00000000	      5.74939048
      0.26666667	     -1.13298928	     -4.49367584	     -7.59442533	     -1.60943609	      0.87324655	      0.26364231	     -1.81725462	      6.41001370	      2.93664735	      3.95167346	      0.06896971	      3.74175147	    -16.10296642	      0.00000000	     -0.56258843	     -6.10813177	     -9.24666229	      6.86333426	      0.11978778	      3.62619203	    -17.55521853	      0.00000000	     -0.00248160	      0.22386750	     -0.43186484	     -0.00460857	      0.29774378	     -0.45885640	     -0.00407702	      0.54431144	     -0.45885640	     -0.00283622	      0.54431144	     -0.37788174	     -0.00230441	      0.45651061	     -0.35089018	     -0.00141798	      0.34677076	     -0.32389863	     -0.01772580	      2.53243395	     -2.40190269	      0.00000000	      0.00000000	     -0.00000000	      0.00000000	      0.00000000	     -2.06316429	      5.32444882	    -34.54932252	     36.84369307	     26.18994023	      0.00000000	      5.73679164	     -6.38884407	      7.72942984	    -45.36227118	     43.02042292	     36.50230707	      0.00000000	      5.73679164
      0.30000000	     -1.22532488	     -4.77763542	     -7.54130181	     -1.60969472	      0.87308259	      0.26263471	     -1.68356503	      6.61939892	      3.22751271	      4.01605547	      0.07009339	      3.52729577	    -16.36351366	      0.00000000	     -0.41271533	     -6.40461100	     -9.38447836	      7.03666529	      0.12281298	      3.72703074	    -17.47869033	      0.00000000	     -0.00272220	      0.24912271	     -0.42725993	     -0.00505540	      0.33133321	     -0.45396368	     -0.00447231	      0.60571696	     -0.45396368	     -0.00311121	      0.60571696	     -0.37385244	     -0.00252784	      0.50801104	     -0.34714869	     -0.00155547	      0.38589108	     -0.32044495	     -0.01944442	      2.81812595	     -2.37629156	      0.00000000	      0.00000000	     -0.00000000	      0.00000000	      0.00000000	     -2.16377524	      4.86356816	    -33.24510196	     36.50694209	     27.94983483	      0.00000000	      5.54172202	     -6.19113078	      8.15140889	    -46.27669511	     43.10082562	     36.91645017	      0.00000000	      5.54172202
      0.33333333	     -1.28856911	     -4.76237614	     -7.14334771	     -1.61007830	      0.87257455	      0.26232627	     -1.59249119	      6.57482258	      2.90338933	      3.95244684	      0.06898321	      3.64415502	    -16.10129923	      0.00000000	     -0.44954583	     -6.38630641	     -9.27646391	      6.75945442	      0.11797474	      3.38665686	    -17.64990889	      0.00000000	     -0.00149321	      0.25044306	     -0.49801792	     -0.00277303	      0.33308927	     -0.52914404	     -0.00245319	      0.60892725	     -0.52914404	     -0.00170658	      0.60892725	     -0.43576568	     -0.00138659	      0.51070348	     -0.40463956	     -0.00085322	      0.38793630	     -0.37351344	     -0.01066581	      2.83306196	     -2.76982626	      0.00000000	      0.00000000	     -0.00000000	      0.00000000	      0.00000000	     -2.15091656	      5.02608353	    -33.71372884	     36.47700473	     30.37512200	      0.00000000	      5.35678128	     -6.18302671	      8.14227740	    -46.21439340	     43.15522639	     37.41539829	      0.00000000	      5.35678128
